<svg version="1.0" xmlns="http://www.w3.org/2000/svg"
 width="300.000000pt" height="169.000000pt" viewBox="0 0 300.000000 169.000000"
 preserveAspectRatio="xMidYMid meet">
<g transform="translate(0.000000,169.000000) scale(0.050000,-0.050000)"
fill="#ffffff" stroke="none">
<path d="M0 1841 l0 -1540 161 110 c290 197 532 294 839 336 l190 25 -219 35
c-264 42 -271 46 -108 66 117 14 121 17 57 29 -139 26 311 17 590 -12 396 -41
768 -39 670 4 -256 112 -743 167 -957 107 -104 -28 -129 -15 -49 26 143 74
320 117 529 128 l215 11 -79 90 c-93 105 -149 270 -133 389 10 73 6 81 -58
119 -37 22 -68 47 -68 56 0 9 -38 39 -85 67 -72 44 -78 52 -38 52 39 1 26 16
-73 91 -100 75 -207 190 -177 190 5 0 66 -27 136 -59 70 -32 154 -64 187 -71
33 -6 4 10 -63 36 -139 54 -302 153 -359 218 -36 41 -34 41 32 -4 l70 -48 -83
91 c-78 86 -139 177 -119 177 5 0 48 -17 96 -37 115 -50 354 -103 450 -101 89
1 84 4 -120 49 -85 20 -161 44 -168 56 -8 12 1 14 23 6 64 -24 439 -39 582
-23 l139 16 -186 24 c-252 33 -252 50 1 50 117 0 218 8 224 19 17 27 -153 48
-311 36 -76 -5 -138 -3 -138 4 0 36 154 187 265 262 l125 83 -100 -14 c-55 -7
-122 -18 -150 -24 -84 -19 -29 16 104 66 l126 48 -130 -11 -130 -11 73 41 c98
54 344 134 464 152 65 10 88 20 70 31 -16 11 37 17 133 17 241 0 510 -72 748
-200 147 -80 144 -69 -27 81 -81 72 -144 133 -140 138 11 11 294 -169 409
-260 119 -94 124 -84 29 62 l-72 110 124 -128 c149 -154 323 -416 410 -615 35
-81 68 -141 74 -136 14 15 49 -135 75 -331 28 -204 32 -211 49 -85 28 200 54
160 42 -65 l-11 -220 39 90 c55 127 52 47 -7 -184 -49 -194 -151 -469 -199
-538 -21 -29 -25 -96 -18 -273 5 -129 1 -282 -10 -340 -11 -58 -18 -105 -15
-105 2 0 71 88 152 195 412 542 932 923 1261 925 189 0 137 -102 -242 -481
-160 -161 -411 -393 -558 -516 l-267 -225 -33 66 c-58 116 -315 66 -350 -68
-17 -67 -2 -67 81 2 157 129 276 55 191 -118 l-40 -80 96 0 c87 0 123 17 373
177 660 422 1116 662 1286 678 l100 10 0 1258 0 1257 -3000 0 -3000 0 0 -1539z"/>
<path d="M5930 599 c-57 -97 -325 -372 -510 -523 l-90 -74 335 -1 335 -1 0
350 c0 193 -2 350 -5 350 -3 -1 -32 -46 -65 -101z"/>
<path d="M150 313 c-135 -43 -140 -47 -147 -113 -6 -66 -4 -67 30 -37 21 18
95 70 167 115 149 93 143 97 -50 35z"/>
<path d="M682 200 c-296 -31 -682 -128 -682 -172 0 -40 419 -38 630 3 212 40
612 63 860 49 110 -6 203 -10 207 -7 13 8 -249 84 -359 104 -169 31 -472 42
-656 23z"/>
</g>
</svg>
